<?xml version="1.0" encoding="utf-8"?>
<!-- Generator: Adobe Illustrator 15.1.0, SVG Export Plug-In . SVG Version: 6.00 Build 0)  -->
<!DOCTYPE svg PUBLIC "-//W3C//DTD SVG 1.1//EN" "http://www.w3.org/Graphics/SVG/1.1/DTD/svg11.dtd">
<svg version="1.1" id="Layer_1" xmlns="http://www.w3.org/2000/svg" xmlns:xlink="http://www.w3.org/1999/xlink" x="0px" y="0px"
	 width="394.203px" height="320.29px" viewBox="0 0 394.203 320.29" enable-background="new 0 0 394.203 320.29"
	 xml:space="preserve">
<path stroke="#000000" stroke-width="0.5" stroke-linecap="round" stroke-linejoin="round" d="M13.13,106.478
	c-6.69,27.45,12.51,43.08,18,65c8.07,32.26-10.02,77.68-4,105c2.58,11.74,14.38,20.77,27,27c27.24,13.45,64.86,7.75,94,1
	c16.89-3.91,33.99-5.22,46-9c19.82-6.24,41.71-20.31,63-30c30.82-14.03,64.8-29.67,80-55c3.73-6.22,5.58-14.33,10-22
	c9.95-17.29,30.34-27.26,35-44c11.9-42.79-26.98-51.77-40-74c-4.26-7.28-6.78-20.22-12-29c-6.84-11.51-21.03-27.32-34-30
	c-7.15-1.48-16.61,0.11-25,0c-27.35-0.35-58.69-2.18-84-1c-60.56,2.82-110.65,7.82-144,39C45.8,84.178,18.78,83.298,13.13,106.478z"
	/>
<path fill="#FFFFFF" stroke="#000000" stroke-width="0.5" stroke-linecap="round" stroke-linejoin="round" d="M345.13,170.478
	c0.27,2.36,4.43,0.61,4-1c1.01,5.76-5.59,6.63-8,11c-3.43,6.22-5.22,18.46-10,26c-18.69,29.51-64.88,44.79-99,62
	c-11.5,5.8-25.2,16.21-35,18c-6.96,1.27-11.66-0.53-16,0c-9.88,1.21-20.72,6.95-33,10c-34.36,8.55-105.67,14.14-113-23
	c-2.74-13.88,1.52-30.56,3-45c2.37-23.1,5.99-53.89-3-73c-3.05-6.49-10.31-11.79-13-21c-9.65-33.08,17.36-38.48,25-58
	c2.15-5.49,0.3-11.83,2-17c4.67-14.18,36.38-30.08,55-32c15.85-1.64,34.78,3.01,53,2c22.73-1.26,41.48-8.47,68-6
	c31.89,2.97,53.4,24.49,74,36c-17.59-15.16-40.44-34.97-73-38c-35.28-3.29-71.48,11.78-105,3c48.11-4.44,113.62-11.16,164-6
	c36.42,3.73,40.62,47.67,58,69c-7.25-0.04-14.37-2.26-21,0c35.9-1.38,62.15,25.14,51,56
	C369.23,154.268,357.291,165.048,345.13,170.478z"/>
<path stroke="#000000" stroke-width="0.5" stroke-linecap="round" stroke-linejoin="round" d="M318.13,122.478
	c-2.47-3.91-0.03-8.91-6-11c-2.98,2.02-2.56,7.44-4,11c-48.04,16.46-109.84,54.79-183,46c-19.51-2.34-47.06-11.23-52-25
	c-2.37-6.61,1.99-18.25-6-21c-3.44,1.23-1.46,7.87-3,11c-15.85,22.33-14.99,78.79,3,97c11.36,11.5,38.06,13.99,61,15
	c70.92,3.12,125.58-11.72,157-46c12.73-13.88,21.22-34.04,34-45c-2.54-5.77,0.47-12.23,4-15c5.46,0.59,9.67,2.95,15,1
	C336.741,131.768,323.611,131.138,318.13,122.478z"/>
<path stroke="#000000" stroke-width="0.5" stroke-linecap="round" stroke-linejoin="round" d="M139.13,264.478
	c3.69-2.31,11.65-0.35,17-1C152.44,265.788,144.48,263.828,139.13,264.478z"/>
<path stroke="#000000" stroke-width="0.5" stroke-linecap="round" stroke-linejoin="round" d="M175.13,252.478
	c-14.28,0.66-36.21,3.84-52,1c0.88,0.16-5.7,1.09-2-1C139.78,253.338,159.101,251.078,175.13,252.478z"/>
<path stroke="#000000" stroke-width="0.5" stroke-linecap="round" stroke-linejoin="round" d="M72.13,245.478
	c10.02,13.65,29.84,17.49,52,19C102.86,266.078,75.86,264.758,72.13,245.478z"/>
<path stroke="#000000" stroke-width="0.5" stroke-linecap="round" stroke-linejoin="round" d="M53.13,248.478
	c2.28,1.39,0.37,6.96,1,10c38.11,31.74,125.39,13.74,170-1c27.7-9.15,51.38-24.83,77-32c-41.69,28.64-133.04,57.44-209,52
	C74.351,276.208,49.23,269.288,53.13,248.478z"/>
<path stroke="#000000" stroke-width="0.5" stroke-linecap="round" stroke-linejoin="round" d="M279.13,225.478
	c1.29,2.35-7.08,3.24-11,5c-29.06,13.05-60.53,36.62-104,33C213.581,261.928,239.35,236.698,279.13,225.478z"/>
<path stroke="#000000" stroke-width="0.5" stroke-linecap="round" stroke-linejoin="round" d="M196.13,142.478
	c-0.2,3.13,0.67,7.34-1,9c-6.38-5.07-17.96,0.18-27-3C169.22,137.658,187.521,140.038,196.13,142.478z"/>
<path stroke="#000000" stroke-width="0.5" stroke-linecap="round" stroke-linejoin="round" d="M36.13,129.478
	c3.96,3.37,6.87,7.8,12,10C42.081,142.168,36.61,135.678,36.13,129.478z"/>
<path stroke="#000000" stroke-width="0.5" stroke-linecap="round" stroke-linejoin="round" d="M217.13,127.478
	c4.21-0.17,0.69,2.24,0,3c3.61,11.24,25.53-2,30,8C238.201,132.308,212.51,143.888,217.13,127.478z"/>
<path stroke="#000000" stroke-width="0.5" stroke-linecap="round" stroke-linejoin="round" d="M214.13,133.478
	c1.05,12.48-1.6,25.13-14,21c-1.33-8.7,9.02-8.25,7-15c-1.88-6.3-10.32-2.84-18-6C190.91,121.448,209.97,127.828,214.13,133.478z"/>
<path stroke="#000000" stroke-width="0.5" stroke-linecap="round" stroke-linejoin="round" d="M340.13,162.478
	c20.41-3.38,24.56-27.95,21-52c6.24,14.13,0.54,28.49-1,43C353.89,156.908,349.911,162.598,340.13,162.478z"/>
<path stroke="#000000" stroke-width="0.5" stroke-linecap="round" stroke-linejoin="round" d="M93.13,119.478
	c4.42-1.25,5.45-5.88,12-5c4.23,12.99-12.59,13.34-25,13c-1.07-4.93-3.15-8.85-7-11c-11.45-1.12-18.25,2.42-28,3
	C50.39,98.838,83.88,109.868,93.13,119.478z"/>
<path stroke="#000000" stroke-width="0.5" stroke-linecap="round" stroke-linejoin="round" d="M51.13,100.478
	c-3.42,6.26-18.1,9.9-13,28c-5.06-4.46,0.32-13.83-1-21C41.96,105.308,46.43,102.778,51.13,100.478z"/>
<path stroke="#000000" stroke-width="0.5" stroke-linecap="round" stroke-linejoin="round" d="M237.13,98.478
	c10.48,1.7,15.37,12.85,28,14c15.45,1.4,23.5-9.46,37-13c36.75-9.65,66.55,24.58,39,54c-4.44-9.92,4.37-14.9,3-27
	c-1.6-14.09-15.13-23.51-31-21c-5.34,0.84-10.04,6.61-16,9C275.64,123.108,237.541,122.448,237.13,98.478z"/>
<path stroke="#000000" stroke-width="0.5" stroke-linecap="round" stroke-linejoin="round" d="M283.13,97.478
	c1.33-2.84,4.45,0.77,6,1C287.741,101.378,284.19,98.198,283.13,97.478z"/>
<path stroke="#000000" stroke-width="0.5" stroke-linecap="round" stroke-linejoin="round" d="M361.13,109.478
	c-6.97-13.37-22.02-18.65-44-17C334.21,88.578,358.17,92.828,361.13,109.478z"/>
<path stroke="#000000" stroke-width="0.5" stroke-linecap="round" stroke-linejoin="round" d="M283.13,87.478
	c4.23-1.87,10.35,2.96,17,2c0.02,5.32-8.73,6.18-13,4c0.14-2.86,6.86,0.86,7-2C290.65,89.958,285.741,89.868,283.13,87.478z"/>
<path stroke="#000000" stroke-width="0.5" stroke-linecap="round" stroke-linejoin="round" d="M147.13,94.478
	c4.79-1.12,9.18-2.8,13,0c-0.3,7.36-8.46,6.88-13,10c0,6.33,0,12.67,0,19c-5.63,5.04-13.89,7.44-18,14c3.36,8.64,9.3,14.7,17,19
	c4.96-0.28,6.77-5.94,12-3c-7.3,24.22-27.21,0.78-35-9c-2.71,1.29-3.56,4.44-8,4c0.48-3.15-1.42-3.91-2-6
	c-7.82,1.85-11.05,8.28-21,8c18.13-8.2,31.22-21.45,47-32c0-4.67,0-9.33,0-14c-13.07-9.6-41.22-4.11-56-12
	C92.03,68.978,136.791,79.458,147.13,94.478z"/>
<path stroke="#000000" stroke-width="0.5" stroke-linecap="round" stroke-linejoin="round" d="M279.13,94.478
	c-6.93,7.99-16.42,1.15-26,0c-20.65-2.47-40.49,6.72-55,13c-32.64-16.6,8.66-39.54,41-38
	C261.071,70.528,275.84,80.328,279.13,94.478z"/>
<path stroke="#000000" stroke-width="0.5" stroke-linecap="round" stroke-linejoin="round" d="M135.13,61.478
	c8.26-4.46,10.74,15.76,6,21C141.78,72.828,141.28,64.328,135.13,61.478z"/>
<path stroke="#000000" stroke-width="0.5" stroke-linecap="round" stroke-linejoin="round" d="M202.13,49.478
	c-5.51,4.49-9.93,10.07-10,20C188.14,61.488,192.92,50.298,202.13,49.478z"/>
<path stroke="#000000" stroke-width="0.5" stroke-linecap="round" stroke-linejoin="round" d="M146.13,55.478
	c-18.89-6.22-57.98-8.86-64,14c-2.85-13.92,19.53-21.84,41-21C131.74,48.818,143.24,49.628,146.13,55.478z"/>
<path stroke="#000000" stroke-width="0.5" stroke-linecap="round" stroke-linejoin="round" d="M198.13,46.478
	c-2.47,0.13-1.7-1.22,0-1c34.31-3.05,68.4,2.07,80,25C263.01,50.938,233.991,45.288,198.13,46.478z"/>
<path stroke="#000000" stroke-width="0.5" stroke-linecap="round" stroke-linejoin="round" d="M85.13,42.478
	c7.97-14.08,32.09-3.19,51-3c27.91,0.28,55.39-8.72,81-7c30.85,2.07,58.85,16.74,74,35c-19.88-15.53-48.49-33.21-87-33
	c-20.4,0.11-41.31,8.17-68,7C116.041,40.598,98.01,33.648,85.13,42.478z"/>
<path stroke="#000000" stroke-width="0.5" stroke-linecap="round" stroke-linejoin="round" d="M79.13,91.478
	c-24.79-1.95-52.18,8-53,32c-0.12,3.48,0.06,11.24,3,16c4.67,7.55,16.44,3.82,20,14c-18.41-4.42-26.87-14.84-25-33
	C26.73,95.268,51.36,85.818,79.13,91.478z"/>
<path fill="#FFFFFF" stroke="#000000" stroke-width="0.5" stroke-linecap="round" stroke-linejoin="round" d="M77.13,225.478
	c0.62-0.97,5.38,0.44,6-3c-0.01-4.99-3.58-6.42-3-12c7.36,3.3,9.72,11.62,12,20C86.521,229.418,80.66,228.618,77.13,225.478z"/>
<path fill="#FFFFFF" stroke="#000000" stroke-width="0.5" stroke-linecap="round" stroke-linejoin="round" d="M116.13,215.478
	c1.81,7.52,6.32,12.35,8,20c4.73,0.3,12.74,2.56,17,0C140.2,221.798,132.561,210.428,116.13,215.478z"/>
<path fill="#FFFFFF" stroke="#000000" stroke-width="0.5" stroke-linecap="round" stroke-linejoin="round" d="M101.13,231.478
	c3.86,1.48,7.56,3.11,13,3c-1.34-6.66-5.79-10.21-6-18c-5.27-0.06-7.34-3.33-13-3C96.061,220.318,104.05,223.948,101.13,231.478z"/>
<path fill="#FFFFFF" stroke="#000000" stroke-width="0.5" stroke-linecap="round" stroke-linejoin="round" d="M145.13,213.478
	c0.06,8.61,3.32,14.01,3,23c9.33-0.34,20.21,0.87,28-1c-0.3-4.56-1.66-16.19-1-25C166.061,212.468,154.45,214.768,145.13,213.478z"
	/>
<path fill="#FFFFFF" stroke="#000000" stroke-width="0.5" stroke-linecap="round" stroke-linejoin="round" d="M73.13,221.478
	c-0.15-7.85-4.09-11.91-8-16C66.851,211.758,69.14,217.468,73.13,221.478z"/>
<path fill="#FFFFFF" stroke="#000000" stroke-width="0.5" stroke-linecap="round" stroke-linejoin="round" d="M183.13,207.478
	c-0.78,9.78,1.41,16.59,1,26c19.28,1.28,31.37-4.63,45-9c-2.42-9.92-8.71-15.96-9-28C209.27,201.618,197.831,206.178,183.13,207.478
	z"/>
<path fill="#FFFFFF" stroke="#000000" stroke-width="0.5" stroke-linecap="round" stroke-linejoin="round" d="M229.13,194.478
	c-1.41,12.75,6.45,16.22,8,26c14.14-5.53,24.36-14.98,36-23c-5.69-2.65-5.22-11.45-7-18
	C255.43,186.108,242.991,190.998,229.13,194.478z"/>
<path fill="#FFFFFF" stroke="#000000" stroke-width="0.5" stroke-linecap="round" stroke-linejoin="round" d="M143.13,177.478
	c0.24,5.24-2.43,7.57-3,12c7.43,2.24,18.93,0.4,28,1c0-5,0-10,0-15C158.66,175.008,153.11,178.458,143.13,177.478z"/>
<path fill="#FFFFFF" stroke="#000000" stroke-width="0.5" stroke-linecap="round" stroke-linejoin="round" d="M103.13,187.478
	c8.59,2.41,18.46,3.54,30,3c-0.66-4.79,1.03-10.99,0-13c-9.03-0.97-19.41-0.59-26-4C105.8,178.148,105.581,183.928,103.13,187.478z"
	/>
<path fill="#FFFFFF" stroke="#000000" stroke-width="0.5" stroke-linecap="round" stroke-linejoin="round" d="M212.13,167.478
	c-12.04,2.96-25.28,4.72-37,8c0,5,0,10,0,15c17.25,1.25,28.78-3.22,42-6C216,178.278,216.02,170.918,212.13,167.478z"/>
<path fill="#FFFFFF" stroke="#000000" stroke-width="0.5" stroke-linecap="round" stroke-linejoin="round" d="M85.13,186.478
	c4.92-1.53,8.71,3.22,11,1c-3.59-5.95,3.5-9.81,3-16c-5.88-0.12-8.42-3.58-13-5C80.69,170.838,84.561,179.668,85.13,186.478z"/>
<path fill="#FFFFFF" stroke="#000000" stroke-width="0.5" stroke-linecap="round" stroke-linejoin="round" d="M278.13,190.478
	c2.54-2.13,6.14-3.71,9-7c3.85-4.42,11.54-17.98,10-18C285.531,167.428,268.88,177.328,278.13,190.478z"/>
<path fill="#FFFFFF" stroke="#000000" stroke-width="0.5" stroke-linecap="round" stroke-linejoin="round" d="M74.13,182.478
	c0.95-7.41,5.41-17.28,1-24C71.86,163.378,63.73,179.118,74.13,182.478z"/>
<path fill="#FFFFFF" stroke="#000000" stroke-width="0.5" stroke-linecap="round" stroke-linejoin="round" d="M222.13,163.478
	c-0.04,6.7,2.57,10.77,3,17c16.87-7.46,42.52-6.14,44-29C254.23,152.248,238.15,160.498,222.13,163.478z"/>
<path fill="#FFFFFF" stroke="#000000" stroke-width="0.5" stroke-linecap="round" stroke-linejoin="round" d="M64.13,157.478
	c2.45-0.28,4.61-5.97,3-7C66.3,152.978,64.39,154.408,64.13,157.478z"/>
<path fill="#FFFFFF" stroke="#000000" stroke-width="0.5" stroke-linecap="round" stroke-linejoin="round" d="M277.13,146.478
	c0,5,0,10,0,15c18.77-3.23,34.99-9.01,36-30C296.64,131.988,290.38,142.728,277.13,146.478z"/>
<path fill="#FFFFFF" stroke="#000000" stroke-width="0.5" stroke-linecap="round" stroke-linejoin="round" d="M114.13,87.478
	c-4.15,1.88-12.1,2.92-17,1C101.28,86.598,109.23,85.558,114.13,87.478z"/>
<path fill="#FFFFFF" stroke="#000000" stroke-width="0.5" stroke-linecap="round" stroke-linejoin="round" d="M258.13,84.478
	c6.17-0.51,9.95,1.38,11,6C265.96,87.988,257.531,90.738,258.13,84.478z"/>
<path fill="#FFFFFF" stroke="#000000" stroke-width="0.5" stroke-linecap="round" stroke-linejoin="round" d="M227.13,88.478
	c-14-0.67-16.83,9.84-31,9c0.45-15.22,16.89-14.44,27-20C226.531,79.078,225.76,84.848,227.13,88.478z"/>
</svg>
